<?xml version="1.0" encoding="UTF-8"?>
<svg id="Layer_1" data-name="Layer 1" xmlns="http://www.w3.org/2000/svg" viewBox="0 0 320 320">
  <path d="M160,0C71.77,0,0,71.78,0,160s71.77,160,160,160,160-71.78,160-160S248.22,0,160,0ZM160,309.24c-82.29,0-149.24-66.95-149.24-149.24,0-30.47,9.22-58.8,24.95-82.44-.13,1.81-.32,3.6-.89,5.23-1.6,4.54-4.51,7.24-3.97,12.51,6.33,1.88,3.58-9.37,8.92-9.95,1.69,4.2.58,12.01.1,16.58-.66,6.29-1.89,7.85,1.87,13.25,2.98,4.28,3.96,7.14,9.72,7.82,5.28.62,7.47,3.01,9.67,8.1,4.07.87,6.54,1.54,7.06,6.05,1.76.98,5.09,4.16,6.95,4.65,2.7.71,7.21-3.14,9.76-.17,4.25,4.95-5.39,17.88-7.11,22.34-2.52,6.53-2.9,16.13,3.29,20.82,3.18,2.41,6.56,3.56,7.59,7.93.96,4.04.21,7.4,2,11.22,2.79,5.95,9.18,7.93,13.73,12.49,5.97,5.98,5.56,13.73,5.56,22.19s3.37,15.6,4.54,23.71c1.21,8.37,3.67,16.12,5.43,24.21,1.32,6.09,6.57,15.28,14.17,14.05.53-2.88-2.46-5.14-2.84-7.99-.34-2.6.39-5.3-.13-8.07-1.02-5.5-.97-8.73,2.67-13.51,1.29-1.69,3.06-3.08,4.39-4.78,2.58-3.28.6-2.31.49-5.9-.14-4.49,1.23-2.28,3.93-3.68,1.4-.73,2.96-2.92,4.04-4.04,2.36-2.46,6-5.4,7.83-8.31,2.05-3.28,1.8-7.85,3.9-11.23,2.42-3.88,5.84-3.89,9.21-6.42,4.38-3.28,2.57-6.74,3.37-11.24,1.33-7.52,4.74-15.82,9.49-21.81,5.97-7.54,8.54-13.96,1.27-21.2-3.59-3.58-5.46-2.63-10.22-3.87-3.63-.95-6.9-3.6-10.6-4.06-2.21-.27-3.52.53-5.55,0-1.88-.49-1.66-1.65-3.64-1.62-2.96.04-7.11,6.21-9.61,2.27-1.39-2.2,2.84-8.28,2.65-11.23-.24-3.62-1.58-9.52-5.13-11.5-1.34-.75-4.32-.86-5.97-1.49-1.93-.75-3.83-1.94-5.56-3.05-2.26-1.45-6.63-3.98-7.63-6.57-2.78-.11-4.66-1.64-7.48-1.6-2.53.03-4.21,1.2-6.95.9-2.4-.27-4.98-2.16-7.57-1.8-1.73.24-4.28,2.48-5.77,3.32-3.94,2.22-8.14,3.84-12.5,4.65-6.75,1.27-7.96-1.32-7.57-7.57l-1.01-2.02c2.51-6.97-2.01-7.46-6.99-9.15-.69-4.97,5.42-8.51,2.87-13.96-5.17-.27-10.8,14.27-15.17,7.98-2.88-4.15,1.5-15.77,4.04-19.29,2.56-3.55,11.86-9.95,16.24-10.5,3.41-.42,6.39,1.07,7.7,4.06,1.43,3.26-.44,6.33-.02,10.02,4.36-1.01,3.23-6.55,3.04-9.52-.32-4.96,2.28-4.59,4.82-8.17,2.3-3.26,2.66-6.98,5.54-10.13,2.24-2.46,4.87-5.04,7.33-7.3,2.8-2.58,5.96-2.35,8.84-4.25,4.37-2.89-1.41-8.26,5.03-7.86,2.29.14,1.15,1.57,4.19.88,1.29-.29,3.67-1.48,5.01-2.03,6.15-2.5,1.79-3.17-1.03-6.42-3.59-4.14,1.49-3.41,5.19-4.04,2.72-.46,2.14-1.34,4.53.25,2.1,1.41.87,3.28,3.92,3.18,5.82-.2,1.79-6.03.49-7.97-2.22-3.32-2.79-5.62-7.48-5.75.44-1.49.5-3.46-.15-4.89-3.95.52-4.63-2.35-7.62-3.48-5.03-1.9-4.22,2.22-6.28,5.03-2.12,2.9-6.17,2.4-7.73,5.93-1.62,3.68-.07,6.49-5.99,5.48.81-2.22.53-5.05.38-7.41-1.72-.22-3.29-.65-4.88-1.17,0-.84.16-1.55.41-2.19,8.61-3.97,17.66-7.11,27.05-9.39,2.02,1.21,4.14,2.17,6.88.08.94-.71,1.33-1.32,1.54-1.9,3.97-.72,7.97-1.38,12.05-1.78,0,0,.01.02.02.03.66,1.12,1.91,1.88,2.43,3.11.6,1.4-.81,3.15.96,4.1,2.22,1.19,7.85-4.81,10.93-7.96.1,0,.19-.01.29-.01,18.08,0,35.34,3.39,51.39,9.31.37.18.66.39,1.08.54.3.1.69.19,1.12.27,1.85.71,3.72,1.37,5.53,2.16.5.75.58,1.75-.3,3.26-2.72,4.67-5.73-1.45-7.1-2.92-1.9-2.04-7.52-4.3-7.34.38.26,6.96,15.95,5.84,12.59,13.49,1.88,1.11,5.59,2.95,4.98,5.69-.75,3.38-5.16,1.23-5.07,5.55.12,6.13,6.81,11.17,13.02,8.96,6.62-2.35,1.63-11.54,9.22-12.48,2.99-.37,4.75.5,7.43,2.62,2.18,1.73,3.59,5.65,6.59,5.34.31-1.87-1.09-3.2-1.33-4.92,2.33.58,7.01,3.49,8.35,5.51,2.02,3.07,1.81,7.48,6.75,3.53-.74-.61-1.11-1.96-1.51-2.45.07,0,.12.02.19.02,4.56,4.57,8.71,9.53,12.66,14.66-3.06.44-8.52-1.48-8.96,2.33-3.67-1.16-5.29-4.11-8.48-5.88-1.51-.84-4.3-.39-5.46-1.24-1.59-1.17-1.2-3.29-2.6-4.44-5.5-4.51-18.05,2.78-23.11,5.69-1.37.79-2.83.88-3.77,2.36-1.61,2.54.65,3.2.15,5.57-.72,3.39-5.14,4.95-6.48,7.67-3.21,6.52,3.31,15.86,2.43,23.1-.49,4.02-4.82,8.38-3.16,11.74.72,1.45,3.22,2.68,4.17,4.39.87,1.55,1.24,3.59,2.38,5.19,3.71,5.21,9.04,11.01,13.39,15.88,2.47,2.76,5.83,3.54,9.56,2.77,3.08-.63,7.74-1.66,10.59-3.03,3.81-1.82,4.31-4.39,8.31-2.66,3.18,1.38,5.99,5.44,9.7,2.08,3.07,2.99-.33,8.21-1.02,11.55-.88,4.28.82,7.99,3.44,11.63,3.15,4.36,3.89,5.13,3.25,10.96-.5,4.54-1.66,8.7-2.63,13.2-.93,4.3-3.68,7.57-3.53,12.13.14,4.21,1.96,7.59,1.4,12.11-.49,3.98-.73,8.71-1.77,12.61-1.07,3.99-3.88,7.52-5.07,11.6-1.13,3.88-.81,8.91,1.91,12.1,2.04,2.39,4.06,2.06,6.28.76-27.26,36.21-70.46,59.77-119.17,59.77Z" fill="#eb2329"/>
</svg>